<?xml version="1.0" standalone="yes"?>

<svg version="1.1" viewBox="0.0 0.0 711.6220472440945 490.46194225721786" fill="none" stroke="none" stroke-linecap="square" stroke-miterlimit="10" xmlns="http://www.w3.org/2000/svg" xmlns:xlink="http://www.w3.org/1999/xlink"><clipPath id="p.0"><path d="m0 0l711.6221 0l0 490.46194l-711.6221 0l0 -490.46194z" clip-rule="nonzero"></path></clipPath><g clip-path="url(#p.0)"><path fill="#000000" fill-opacity="0.0" d="m0 0l711.6221 0l0 490.46194l-711.6221 0z" fill-rule="nonzero"></path><path fill="#000000" fill-opacity="0.0" d="m121.98425 9.918635l479.59058 0l0 116.62992l-479.59058 0z" fill-rule="nonzero"></path><path stroke="#ff0000" stroke-width="8.0" stroke-linejoin="round" stroke-linecap="butt" d="m121.98425 9.918635l479.59058 0l0 116.62992l-479.59058 0z" fill-rule="nonzero"></path><path fill="#000000" d="m273.73856 62.273594l-3.1875 0q-0.21875 -0.03125 -0.375 -0.1875q-0.15625 -0.15625 -0.15625 -0.390625l0 -15.640625q0 -0.25 0.15625 -0.40625q0.171875 -0.171875 0.421875 -0.171875l3.140625 0q3.484375 0 5.9375 2.46875q2.453125 2.46875 2.453125 5.953125q0 3.484375 -2.453125 5.9375q-2.453125 2.4375 -5.9375 2.4375zm-2.546875 -1.171875l2.546875 0q3.0 0 5.109375 -2.109375q2.109375 -2.125 2.109375 -5.109375q0 -2.984375 -2.109375 -5.09375q-2.109375 -2.109375 -5.109375 -2.140625l-2.546875 0l0 14.453125zm24.69345 -10.421875q0.171875 -0.171875 0.40625 -0.171875q0.25 0 0.40625 0.171875q0.171875 0.171875 0.171875 0.40625l0 10.609375q0 0.234375 -0.171875 0.40625q-0.15625 0.171875 -0.40625 0.171875q-0.234375 0 -0.40625 -0.171875q-0.171875 -0.171875 -0.171875 -0.40625l0 -1.75q-0.765625 1.078125 -1.9375 1.703125q-1.15625 0.625 -2.46875 0.625q-2.3125 0 -3.953125 -1.71875q-1.625 -1.734375 -1.625 -4.15625q0 -2.421875 1.625 -4.15625q1.640625 -1.734375 3.953125 -1.734375q1.3125 0 2.46875 0.625q1.171875 0.625 1.9375 1.6875l0 -1.734375q0 -0.234375 0.171875 -0.40625zm-9.0 5.71875q0 1.96875 1.3125 3.34375q1.3125 1.375 3.125 1.375q1.8125 0 3.09375 -1.375q1.296875 -1.375 1.296875 -3.34375q0 -1.96875 -1.296875 -3.359375q-1.28125 -1.390625 -3.09375 -1.390625q-1.8125 0 -3.125 1.390625q-1.3125 1.390625 -1.3125 3.359375zm18.512207 -5.890625q0.203125 0 0.390625 0.1875q0.1875 0.171875 0.1875 0.390625q0 0.21875 -0.1875 0.40625q-0.1875 0.171875 -0.390625 0.171875l-1.515625 0l0 8.5625q0 0.390625 0.296875 0.640625q0.296875 0.234375 0.53125 0.234375q0.25 0 0.4375 0.1875q0.203125 0.1875 0.203125 0.40625q0 0.21875 -0.203125 0.40625q-0.1875 0.171875 -0.40625 0.171875q-0.890625 0 -1.484375 -0.578125q-0.578125 -0.578125 -0.578125 -1.46875l0 -8.5625l-1.46875 0q-0.375 0 -0.46875 -0.140625q-0.09375 -0.140625 -0.09375 -0.375q0 -0.25 0.015625 -0.34375q0.078125 -0.296875 0.546875 -0.296875l1.46875 0l0 -4.359375q0 -0.21875 0.171875 -0.390625q0.1875 -0.1875 0.40625 -0.1875q0.234375 0 0.421875 0.1875q0.203125 0.171875 0.203125 0.390625l0 4.359375l1.515625 0zm14.943726 0.171875q0.171875 -0.171875 0.40625 -0.171875q0.25 0 0.40625 0.171875q0.171875 0.171875 0.171875 0.40625l0 10.609375q0 0.234375 -0.171875 0.40625q-0.15625 0.171875 -0.40625 0.171875q-0.234375 0 -0.40625 -0.171875q-0.171875 -0.171875 -0.171875 -0.40625l0 -1.75q-0.765625 1.078125 -1.9375 1.703125q-1.15625 0.625 -2.46875 0.625q-2.3125 0 -3.953125 -1.71875q-1.625 -1.734375 -1.625 -4.15625q0 -2.421875 1.625 -4.15625q1.640625 -1.734375 3.953125 -1.734375q1.3125 0 2.46875 0.625q1.171875 0.625 1.9375 1.6875l0 -1.734375q0 -0.234375 0.171875 -0.40625zm-9.0 5.71875q0 1.96875 1.3125 3.34375q1.3125 1.375 3.125 1.375q1.8125 0 3.09375 -1.375q1.296875 -1.375 1.296875 -3.34375q0 -1.96875 -1.296875 -3.359375q-1.28125 -1.390625 -3.09375 -1.390625q-1.8125 0 -3.125 1.390625q-1.3125 1.390625 -1.3125 3.359375zm14.980957 5.296875l0 -15.640625q0 -0.25 0.15625 -0.40625q0.171875 -0.171875 0.40625 -0.171875q0.25 0 0.421875 0.171875q0.1875 0.15625 0.1875 0.40625l0 6.765625q0.796875 -1.0625 1.96875 -1.6875q1.171875 -0.625 2.546875 -0.625q2.375 0 4.03125 1.734375q1.65625 1.734375 1.65625 4.171875q0 2.421875 -1.65625 4.140625q-1.65625 1.71875 -4.03125 1.71875q-1.375 0 -2.546875 -0.609375q-1.171875 -0.609375 -1.96875 -1.671875l0 1.703125q0 0.234375 -0.1875 0.40625q-0.171875 0.171875 -0.421875 0.171875q-0.234375 0 -0.40625 -0.171875q-0.15625 -0.171875 -0.15625 -0.40625zm1.171875 -5.46875l0 0.1875q0 1.953125 1.328125 3.328125q1.34375 1.359375 3.203125 1.359375q1.859375 0 3.171875 -1.359375q1.328125 -1.375 1.328125 -3.328125q0 -1.96875 -1.328125 -3.34375q-1.3125 -1.375 -3.171875 -1.375q-1.84375 0 -3.15625 1.328125q-1.296875 1.3125 -1.375 3.203125zm23.54306 -5.546875q0.171875 -0.171875 0.40625 -0.171875q0.25 0 0.40625 0.171875q0.171875 0.171875 0.171875 0.40625l0 10.609375q0 0.234375 -0.171875 0.40625q-0.15625 0.171875 -0.40625 0.171875q-0.234375 0 -0.40625 -0.171875q-0.171875 -0.171875 -0.171875 -0.40625l0 -1.75q-0.765625 1.078125 -1.9375 1.703125q-1.15625 0.625 -2.46875 0.625q-2.3125 0 -3.953125 -1.71875q-1.625 -1.734375 -1.625 -4.15625q0 -2.421875 1.625 -4.15625q1.640625 -1.734375 3.953125 -1.734375q1.3125 0 2.46875 0.625q1.171875 0.625 1.9375 1.6875l0 -1.734375q0 -0.234375 0.171875 -0.40625zm-9.0 5.71875q0 1.96875 1.3125 3.34375q1.3125 1.375 3.125 1.375q1.8125 0 3.09375 -1.375q1.296875 -1.375 1.296875 -3.34375q0 -1.96875 -1.296875 -3.359375q-1.28125 -1.390625 -3.09375 -1.390625q-1.8125 0 -3.125 1.390625q-1.3125 1.390625 -1.3125 3.359375zm14.230957 4.1875q-0.40625 -0.359375 -0.0625 -0.765625q0.140625 -0.1875 0.375 -0.203125q0.25 -0.03125 0.4375 0.140625q1.875 1.359375 3.40625 1.359375q1.53125 0 2.421875 -0.71875q0.890625 -0.59375 0.875 -1.390625q-0.015625 -0.8125 -0.796875 -1.4375q-0.765625 -0.625 -2.53125 -0.90625l-0.046875 -0.03125q-1.859375 -0.328125 -2.65625 -0.90625q-1.28125 -0.75 -1.28125 -2.109375q0 -1.375 1.28125 -2.3125q1.15625 -0.796875 2.875 -0.796875q0.703125 0 1.40625 0.234375q0.703125 0.234375 1.078125 0.4375q0.375 0.203125 1.015625 0.609375q0.203125 0.140625 0.25 0.390625q0.046875 0.234375 -0.078125 0.421875q-0.109375 0.1875 -0.359375 0.234375q-0.234375 0.046875 -0.4375 -0.0625q-0.59375 -0.40625 -0.890625 -0.578125q-0.296875 -0.1875 -0.875 -0.390625q-0.578125 -0.21875 -1.109375 -0.21875q-1.390625 0 -2.1875 0.640625q-0.78125 0.640625 -0.78125 1.34375q0 0.6875 0.671875 1.21875q0.828125 0.578125 2.390625 0.8125l0.046875 0q1.5625 0.234375 2.859375 0.953125q1.328125 0.875 1.328125 2.328125q0 1.453125 -1.3125 2.421875q-1.3125 0.96875 -2.96875 0.96875q-2.28125 -0.03125 -4.34375 -1.6875zm23.089233 -4.59375l0 0.09375q0 0.234375 -0.171875 0.390625q-0.15625 0.140625 -0.40625 0.140625l-9.640625 0q0.09375 1.90625 1.40625 3.203125q1.328125 1.296875 3.15625 1.296875q1.171875 0 2.171875 -0.5625q1.015625 -0.578125 1.609375 -1.5625q0.296875 -0.484375 0.765625 -0.203125q0.484375 0.34375 0.203125 0.828125q-0.765625 1.21875 -2.03125 1.9375q-1.265625 0.71875 -2.71875 0.71875q-2.375 0 -4.046875 -1.71875q-1.671875 -1.71875 -1.671875 -4.140625q0 -2.4375 1.671875 -4.171875q1.671875 -1.734375 3.984375 -1.734375q2.3125 0 3.921875 1.578125q1.609375 1.578125 1.796875 3.90625zm-1.25 -0.515625q-0.28125 -1.65625 -1.53125 -2.734375q-1.25 -1.078125 -2.890625 -1.078125q-1.640625 0 -2.890625 1.078125q-1.25 1.0625 -1.59375 2.734375l8.90625 0zm22.019073 6.796875l-8.640625 0q-0.25 0 -0.421875 -0.171875q-0.15625 -0.171875 -0.15625 -0.40625l0 -15.640625q0 -0.25 0.15625 -0.40625q0.171875 -0.171875 0.40625 -0.171875q0.25 0 0.421875 0.171875q0.1875 0.15625 0.1875 0.40625l0 15.046875l8.046875 0q0.234375 0 0.40625 0.1875q0.1875 0.171875 0.1875 0.40625q0 0.234375 -0.1875 0.40625q-0.171875 0.171875 -0.40625 0.171875zm12.902588 -11.59375q0.171875 -0.171875 0.40625 -0.171875q0.25 0 0.40625 0.171875q0.171875 0.171875 0.171875 0.40625l0 10.609375q0 0.234375 -0.171875 0.40625q-0.15625 0.171875 -0.40625 0.171875q-0.234375 0 -0.40625 -0.171875q-0.171875 -0.171875 -0.171875 -0.40625l0 -1.75q-0.765625 1.078125 -1.9375 1.703125q-1.15625 0.625 -2.46875 0.625q-2.3125 0 -3.953125 -1.71875q-1.625 -1.734375 -1.625 -4.15625q0 -2.421875 1.625 -4.15625q1.640625 -1.734375 3.953125 -1.734375q1.3125 0 2.46875 0.625q1.171875 0.625 1.9375 1.6875l0 -1.734375q0 -0.234375 0.171875 -0.40625zm-9.0 5.71875q0 1.96875 1.3125 3.34375q1.3125 1.375 3.125 1.375q1.8125 0 3.09375 -1.375q1.296875 -1.375 1.296875 -3.34375q0 -1.96875 -1.296875 -3.359375q-1.28125 -1.390625 -3.09375 -1.390625q-1.8125 0 -3.125 1.390625q-1.3125 1.390625 -1.3125 3.359375zm23.043457 -5.890625q0.5 0.125 0.5 0.5625l0 10.265625q0 2.3125 -1.640625 3.9062462q-1.625 1.609375 -3.953125 1.609375q-1.1875 0 -2.421875 -0.546875q-0.484375 -0.3125 -0.25 -0.765625q0.234375 -0.4375 0.75 -0.296875q0.921875 0.46875 1.921875 0.46875q1.828125 0 3.125 -1.28125q1.296875 -1.2656212 1.3125 -3.0937462l0 -0.765625q-1.484375 1.671875 -3.546875 1.671875q-2.0625 -0.015625 -3.453125 -1.421875q-1.390625 -1.40625 -1.390625 -3.375l0 -6.375q0 -0.25 0.15625 -0.40625q0.171875 -0.15625 0.40625 -0.15625q0.25 0 0.421875 0.15625q0.171875 0.15625 0.171875 0.40625l0 6.375q0 1.515625 1.046875 2.578125q1.0625 1.046875 2.5625 1.046875q1.5 0 2.546875 -1.046875q1.0625 -1.0625 1.078125 -2.578125l0 -6.375q0 -0.203125 0.046875 -0.25q0.0625 -0.046875 0.078125 -0.078125q0.03125 -0.03125 0.03125 -0.03125q0 -0.09375 0.234375 -0.171875l0.046875 0q0.046875 -0.03125 0.078125 -0.03125l0.140625 0zm16.580688 5.484375l0 0.09375q0 0.234375 -0.171875 0.390625q-0.15625 0.140625 -0.40625 0.140625l-9.640625 0q0.09375 1.90625 1.40625 3.203125q1.328125 1.296875 3.15625 1.296875q1.171875 0 2.171875 -0.5625q1.015625 -0.578125 1.609375 -1.5625q0.296875 -0.484375 0.765625 -0.203125q0.484375 0.34375 0.203125 0.828125q-0.765625 1.21875 -2.03125 1.9375q-1.265625 0.71875 -2.71875 0.71875q-2.375 0 -4.046875 -1.71875q-1.671875 -1.71875 -1.671875 -4.140625q0 -2.4375 1.671875 -4.171875q1.671875 -1.734375 3.984375 -1.734375q2.3125 0 3.921875 1.578125q1.609375 1.578125 1.796875 3.90625zm-1.25 -0.515625q-0.28125 -1.65625 -1.53125 -2.734375q-1.25 -1.078125 -2.890625 -1.078125q-1.640625 0 -2.890625 1.078125q-1.25 1.0625 -1.59375 2.734375l8.90625 0zm5.334717 6.21875l0 -10.578125q0 -0.25 0.15625 -0.40625q0.171875 -0.171875 0.40625 -0.171875q0.25 0 0.421875 0.171875q0.171875 0.15625 0.171875 0.40625l0 2.59375q0.09375 -0.203125 0.15625 -0.296875q1.859375 -2.875 4.703125 -2.875q0.25 0 0.40625 0.171875q0.171875 0.15625 0.171875 0.40625q0 0.234375 -0.171875 0.40625q-0.15625 0.171875 -0.40625 0.171875q-1.90625 0 -3.40625 1.921875q-0.859375 1.140625 -1.40625 2.734375q-0.046875 0.09375 -0.046875 0.1875l0 5.15625q0 0.234375 -0.171875 0.40625q-0.171875 0.171875 -0.421875 0.171875q-0.234375 0 -0.40625 -0.171875q-0.15625 -0.171875 -0.15625 -0.40625z" fill-rule="nonzero"></path><path fill="#000000" d="m248.97124 90.601715q-1.15625 -2.46875 -1.15625 -6.578125q0 -4.125 1.15625 -6.625q1.3593903 -3.0 4.1718903 -3.0q0.265625 0 0.453125 0.203125q0.203125 0.203125 0.203125 0.46875q0 0.265625 -0.203125 0.46875q-0.1875 0.203125 -0.453125 0.203125q-1.921875 0.03125 -2.96875 2.234375q-1.0156403 2.203125 -1.0156403 6.03125q0 3.8125 1.0156403 6.015625q1.078125 2.234375 2.96875 2.234375q0.265625 0 0.453125 0.203125q0.203125 0.203125 0.203125 0.46875q0 0.28125 -0.203125 0.46875q-0.1875 0.203125 -0.453125 0.203125l-0.046875 0q-1.421875 0 -2.484375 -0.8125q-1.0468903 -0.8125 -1.6406403 -2.1875zm10.319992 0.671875l-0.140625 0q-0.359375 -0.046875 -0.484375 -0.4375l0 -10.75q0 -0.234375 0.15625 -0.390625q0.171875 -0.15625 0.40625 -0.15625q0.234375 0 0.390625 0.15625q0.171875 0.15625 0.171875 0.390625l0 1.125q1.421875 -1.671875 3.625 -1.671875q1.34375 0 2.453125 0.6875q1.125 0.671875 1.75 1.8125q0.640625 -1.140625 1.765625 -1.8125q1.140625 -0.6875 2.453125 -0.6875q1.96875 0 3.375 1.40625q1.40625 1.40625 1.40625 3.375l0 6.40625q0 0.203125 -0.171875 0.375q-0.171875 0.171875 -0.40625 0.171875q-0.234375 0 -0.390625 -0.171875q-0.15625 -0.171875 -0.15625 -0.375l0 -6.40625q-0.046875 -1.515625 -1.109375 -2.578125q-1.0625 -1.078125 -2.546875 -1.078125q-1.484375 0 -2.5625 1.078125q-1.0625 1.078125 -1.0625 2.578125l0 6.46875l-0.015625 0.046875l0 0.046875q-0.046875 0.171875 -0.25 0.28125q-0.1875 0.109375 -0.328125 0.109375l-0.125 0l-0.1875 -0.09375q-0.03125 0 -0.109375 -0.09375q-0.078125 -0.09375 -0.09375 -0.125q-0.015625 -0.03125 -0.03125 -0.0625q-0.015625 -0.03125 -0.03125 -0.0625l0 -6.515625q0 -1.515625 -1.0625 -2.578125q-1.046875 -1.078125 -2.5625 -1.078125q-1.515625 0 -2.578125 1.078125q-1.046875 1.0625 -1.046875 2.578125l0 6.40625q0 0.3125 -0.265625 0.453125q-0.09375 0.09375 -0.234375 0.09375zm23.277039 -1.734375q-1.625 -1.75 -1.625 -4.140625q0 -2.40625 1.625 -4.140625q1.625 -1.75 3.921875 -1.75q2.3125 0 3.9375 1.75q1.640625 1.734375 1.640625 4.140625q0 2.390625 -1.640625 4.140625q-1.625 1.734375 -3.9375 1.734375q-2.296875 0 -3.921875 -1.734375zm3.9375 -8.890625q-1.796875 0 -3.109375 1.390625q-1.3125 1.390625 -1.3125 3.34375q0 1.953125 1.3125 3.34375q1.3125 1.390625 3.109375 1.390625q1.796875 0 3.09375 -1.390625q1.3125 -1.390625 1.3125 -3.34375q0 -1.953125 -1.3125 -3.34375q-1.296875 -1.390625 -3.09375 -1.390625zm19.390594 10.046875l0 -1.703125q-0.796875 1.0625 -1.96875 1.671875q-1.171875 0.609375 -2.546875 0.609375q-2.375 0 -4.03125 -1.71875q-1.65625 -1.71875 -1.65625 -4.140625q0 -2.4375 1.65625 -4.171875q1.65625 -1.734375 4.03125 -1.734375q1.375 0 2.546875 0.625q1.171875 0.625 1.96875 1.6875l0 -6.765625q0 -0.25 0.171875 -0.40625q0.1875 -0.171875 0.421875 -0.171875q0.25 0 0.40625 0.171875q0.171875 0.15625 0.171875 0.40625l0 15.640625q0 0.234375 -0.171875 0.40625q-0.15625 0.171875 -0.40625 0.171875q-0.234375 0 -0.421875 -0.171875q-0.171875 -0.171875 -0.171875 -0.40625zm-9.03125 -5.28125q0 1.953125 1.328125 3.328125q1.34375 1.359375 3.171875 1.359375q1.84375 0 3.140625 -1.3125q1.3125 -1.3125 1.390625 -3.171875l0 -0.390625q-0.078125 -1.890625 -1.390625 -3.203125q-1.296875 -1.328125 -3.140625 -1.328125q-1.828125 0 -3.171875 1.375q-1.328125 1.375 -1.328125 3.34375zm25.996185 -0.421875l0 0.09375q0 0.234375 -0.171875 0.390625q-0.15625 0.140625 -0.40625 0.140625l-9.640625 0q0.09375 1.90625 1.40625 3.203125q1.328125 1.296875 3.15625 1.296875q1.171875 0 2.171875 -0.5625q1.015625 -0.578125 1.609375 -1.5625q0.296875 -0.484375 0.765625 -0.203125q0.484375 0.34375 0.203125 0.828125q-0.765625 1.21875 -2.03125 1.9375q-1.265625 0.71875 -2.71875 0.71875q-2.375 0 -4.046875 -1.71875q-1.671875 -1.71875 -1.671875 -4.140625q0 -2.4375 1.671875 -4.171875q1.671875 -1.734375 3.984375 -1.734375q2.3125 0 3.921875 1.578125q1.609375 1.578125 1.796875 3.90625zm-1.25 -0.515625q-0.28125 -1.65625 -1.53125 -2.734375q-1.25 -1.078125 -2.890625 -1.078125q-1.640625 0 -2.890625 1.078125q-1.25 1.0625 -1.59375 2.734375l8.90625 0zm5.506592 6.21875l0 -15.640625q0 -0.25 0.15625 -0.40625q0.171875 -0.171875 0.40625 -0.171875q0.25 0 0.421875 0.171875q0.1875 0.15625 0.1875 0.40625l0 15.640625q0 0.234375 -0.1875 0.40625q-0.171875 0.171875 -0.421875 0.171875q-0.234375 0 -0.40625 -0.171875q-0.15625 -0.171875 -0.15625 -0.40625zm22.41034 0l0 -1.703125q-0.796875 1.0625 -1.96875 1.671875q-1.171875 0.609375 -2.546875 0.609375q-2.375 0 -4.03125 -1.71875q-1.65625 -1.71875 -1.65625 -4.140625q0 -2.4375 1.65625 -4.171875q1.65625 -1.734375 4.03125 -1.734375q1.375 0 2.546875 0.625q1.171875 0.625 1.96875 1.6875l0 -6.765625q0 -0.25 0.171875 -0.40625q0.1875 -0.171875 0.421875 -0.171875q0.25 0 0.40625 0.171875q0.171875 0.15625 0.171875 0.40625l0 15.640625q0 0.234375 -0.171875 0.40625q-0.15625 0.171875 -0.40625 0.171875q-0.234375 0 -0.421875 -0.171875q-0.171875 -0.171875 -0.171875 -0.40625zm-9.03125 -5.28125q0 1.953125 1.328125 3.328125q1.34375 1.359375 3.171875 1.359375q1.84375 0 3.140625 -1.3125q1.3125 -1.3125 1.390625 -3.171875l0 -0.390625q-0.078125 -1.890625 -1.390625 -3.203125q-1.296875 -1.328125 -3.140625 -1.328125q-1.828125 0 -3.171875 1.375q-1.328125 1.375 -1.328125 3.34375zm25.996185 -0.421875l0 0.09375q0 0.234375 -0.171875 0.390625q-0.15625 0.140625 -0.40625 0.140625l-9.640625 0q0.09375 1.90625 1.40625 3.203125q1.328125 1.296875 3.15625 1.296875q1.171875 0 2.171875 -0.5625q1.015625 -0.578125 1.609375 -1.5625q0.296875 -0.484375 0.765625 -0.203125q0.484375 0.34375 0.203125 0.828125q-0.765625 1.21875 -2.03125 1.9375q-1.265625 0.71875 -2.71875 0.71875q-2.375 0 -4.046875 -1.71875q-1.671875 -1.71875 -1.671875 -4.140625q0 -2.4375 1.671875 -4.171875q1.671875 -1.734375 3.984375 -1.734375q2.3125 0 3.921875 1.578125q1.609375 1.578125 1.796875 3.90625zm-1.25 -0.515625q-0.28125 -1.65625 -1.53125 -2.734375q-1.25 -1.078125 -2.890625 -1.078125q-1.640625 0 -2.890625 1.078125q-1.25 1.0625 -1.59375 2.734375l8.90625 0zm10.537842 6.796875q-2.515625 0 -4.28125 -1.71875q-1.765625 -1.71875 -1.765625 -4.171875q0 -2.46875 1.765625 -4.171875q1.765625 -1.703125 4.078125 -1.703125q2.3125 0 3.953125 1.296875q0.1875 0.125 0.203125 0.375q0.03125 0.234375 -0.140625 0.421875q-0.359375 0.40625 -0.78125 0.09375q-1.328125 -1.046875 -3.203125 -1.046875q-1.859375 0 -3.296875 1.390625q-1.421875 1.390625 -1.421875 3.359375q0 1.96875 1.421875 3.34375q1.4375 1.375 3.296875 1.375q1.859375 0 3.203125 -1.03125q0.421875 -0.3125 0.796875 0.125q0.375 0.4375 -0.125 0.8125q-1.609375 1.25 -3.703125 1.25zm8.672699 -0.578125l0 -15.640625q0 -0.25 0.15625 -0.40625q0.171875 -0.171875 0.40625 -0.171875q0.25 0 0.421875 0.171875q0.1875 0.15625 0.1875 0.40625l0 15.640625q0 0.234375 -0.1875 0.40625q-0.171875 0.171875 -0.421875 0.171875q-0.234375 0 -0.40625 -0.171875q-0.15625 -0.171875 -0.15625 -0.40625zm14.679108 -11.015625q0.171875 -0.171875 0.40625 -0.171875q0.25 0 0.40625 0.171875q0.171875 0.171875 0.171875 0.40625l0 10.609375q0 0.234375 -0.171875 0.40625q-0.15625 0.171875 -0.40625 0.171875q-0.234375 0 -0.40625 -0.171875q-0.171875 -0.171875 -0.171875 -0.40625l0 -1.75q-0.765625 1.078125 -1.9375 1.703125q-1.15625 0.625 -2.46875 0.625q-2.3125 0 -3.953125 -1.71875q-1.625 -1.734375 -1.625 -4.15625q0 -2.421875 1.625 -4.15625q1.640625 -1.734375 3.953125 -1.734375q1.3125 0 2.46875 0.625q1.171875 0.625 1.9375 1.6875l0 -1.734375q0 -0.234375 0.171875 -0.40625zm-9.0 5.71875q0 1.96875 1.3125 3.34375q1.3125 1.375 3.125 1.375q1.8125 0 3.09375 -1.375q1.296875 -1.375 1.296875 -3.34375q0 -1.96875 -1.296875 -3.359375q-1.28125 -1.390625 -3.09375 -1.390625q-1.8125 0 -3.125 1.390625q-1.3125 1.390625 -1.3125 3.359375zm14.980957 5.296875l0 -10.578125q0 -0.25 0.15625 -0.40625q0.171875 -0.171875 0.40625 -0.171875q0.25 0 0.421875 0.171875q0.171875 0.15625 0.171875 0.40625l0 2.59375q0.09375 -0.203125 0.15625 -0.296875q1.859375 -2.875 4.703125 -2.875q0.25 0 0.40625 0.171875q0.171875 0.15625 0.171875 0.40625q0 0.234375 -0.171875 0.40625q-0.15625 0.171875 -0.40625 0.171875q-1.90625 0 -3.40625 1.921875q-0.859375 1.140625 -1.40625 2.734375q-0.046875 0.09375 -0.046875 0.1875l0 5.15625q0 0.234375 -0.171875 0.40625q-0.171875 0.171875 -0.421875 0.171875q-0.234375 0 -0.40625 -0.171875q-0.15625 -0.171875 -0.15625 -0.40625zm19.41098 -11.015625q0.171875 -0.171875 0.40625 -0.171875q0.25 0 0.40625 0.171875q0.171875 0.171875 0.171875 0.40625l0 10.609375q0 0.234375 -0.171875 0.40625q-0.15625 0.171875 -0.40625 0.171875q-0.234375 0 -0.40625 -0.171875q-0.171875 -0.171875 -0.171875 -0.40625l0 -1.75q-0.765625 1.078125 -1.9375 1.703125q-1.15625 0.625 -2.46875 0.625q-2.3125 0 -3.953125 -1.71875q-1.625 -1.734375 -1.625 -4.15625q0 -2.421875 1.625 -4.15625q1.640625 -1.734375 3.953125 -1.734375q1.3125 0 2.46875 0.625q1.171875 0.625 1.9375 1.6875l0 -1.734375q0 -0.234375 0.171875 -0.40625zm-9.0 5.71875q0 1.96875 1.3125 3.34375q1.3125 1.375 3.125 1.375q1.8125 0 3.09375 -1.375q1.296875 -1.375 1.296875 -3.34375q0 -1.96875 -1.296875 -3.359375q-1.28125 -1.390625 -3.09375 -1.390625q-1.8125 0 -3.125 1.390625q-1.3125 1.390625 -1.3125 3.359375zm18.512207 -5.890625q0.203125 0 0.390625 0.1875q0.1875 0.171875 0.1875 0.390625q0 0.21875 -0.1875 0.40625q-0.1875 0.171875 -0.390625 0.171875l-1.515625 0l0 8.5625q0 0.390625 0.296875 0.640625q0.296875 0.234375 0.53125 0.234375q0.25 0 0.4375 0.1875q0.203125 0.1875 0.203125 0.40625q0 0.21875 -0.203125 0.40625q-0.1875 0.171875 -0.40625 0.171875q-0.890625 0 -1.484375 -0.578125q-0.578125 -0.578125 -0.578125 -1.46875l0 -8.5625l-1.46875 0q-0.375 0 -0.46875 -0.140625q-0.09375 -0.140625 -0.09375 -0.375q0 -0.25 0.015625 -0.34375q0.078125 -0.296875 0.546875 -0.296875l1.46875 0l0 -4.359375q0 -0.21875 0.171875 -0.390625q0.1875 -0.1875 0.40625 -0.1875q0.234375 0 0.421875 0.1875q0.203125 0.171875 0.203125 0.390625l0 4.359375l1.515625 0zm6.0843506 11.1875l0 -10.609375q0 -0.234375 0.171875 -0.40625q0.171875 -0.171875 0.421875 -0.171875q0.25 0 0.421875 0.171875q0.171875 0.171875 0.171875 0.40625l0 10.609375q0 0.234375 -0.1875 0.40625q-0.171875 0.171875 -0.421875 0.171875q-0.234375 0 -0.40625 -0.171875q-0.171875 -0.171875 -0.171875 -0.40625zm0 -13.890625l0 -0.5625q0 -0.234375 0.171875 -0.390625q0.171875 -0.171875 0.40625 -0.171875q0.25 0 0.421875 0.171875q0.1875 0.15625 0.1875 0.390625l0 0.5625q0 0.265625 -0.1875 0.453125q-0.171875 0.171875 -0.421875 0.171875q-0.234375 0 -0.40625 -0.171875q-0.171875 -0.1875 -0.171875 -0.453125zm7.8064575 12.734375q-1.625 -1.75 -1.625 -4.140625q0 -2.40625 1.625 -4.140625q1.625 -1.75 3.921875 -1.75q2.3125 0 3.9375 1.75q1.640625 1.734375 1.640625 4.140625q0 2.390625 -1.640625 4.140625q-1.625 1.734375 -3.9375 1.734375q-2.296875 0 -3.921875 -1.734375zm3.9375 -8.890625q-1.796875 0 -3.109375 1.390625q-1.3125 1.390625 -1.3125 3.34375q0 1.953125 1.3125 3.34375q1.3125 1.390625 3.109375 1.390625q1.796875 0 3.09375 -1.390625q1.3125 -1.390625 1.3125 -3.34375q0 -1.953125 -1.3125 -3.34375q-1.296875 -1.390625 -3.09375 -1.390625zm11.1093445 10.140625q-0.125 0.484375 -0.546875 0.484375l-0.15625 0q-0.25 -0.078125 -0.375 -0.3125q-0.03125 -0.03125 -0.03125 -0.078125l-0.015625 -0.046875l0 -10.71875q0 -0.25 0.15625 -0.40625q0.171875 -0.171875 0.40625 -0.171875q0.25 0 0.40625 0.171875q0.15625 0.15625 0.15625 0.40625l0 1.125q1.421875 -1.703125 3.515625 -1.703125q2.09375 0 3.5 1.40625q1.40625 1.40625 1.40625 3.375l0 6.375q0 0.234375 -0.171875 0.40625q-0.15625 0.171875 -0.40625 0.171875q-0.234375 0 -0.40625 -0.171875q-0.171875 -0.171875 -0.171875 -0.40625l0 -6.375q0 -1.5 -1.0625 -2.5625q-1.046875 -1.0625 -2.546875 -1.0625q-1.5 0 -2.5625 1.0625q-1.046875 1.046875 -1.09375 2.5625l0 6.46875zm17.618195 -0.1875q-0.609375 1.375 -1.671875 2.1875q-1.046875 0.8125 -2.453125 0.8125l-0.046875 0q-0.265625 0 -0.46875 -0.203125q-0.1875 -0.1875 -0.1875 -0.46875q0 -0.265625 0.1875 -0.46875q0.203125 -0.203125 0.46875 -0.203125q1.890625 0 2.96875 -2.234375q1.015625 -2.203125 1.015625 -6.015625q0 -3.828125 -1.015625 -6.03125q-1.046875 -2.203125 -2.96875 -2.234375q-0.265625 0 -0.46875 -0.203125q-0.1875 -0.203125 -0.1875 -0.46875q0 -0.265625 0.1875 -0.46875q0.203125 -0.203125 0.46875 -0.203125q2.796875 0 4.171875 3.0q1.15625 2.5 1.15625 6.625q0 4.109375 -1.15625 6.578125z" fill-rule="nonzero"></path><path fill="#000000" fill-opacity="0.0" d="m121.98425 167.73753l479.59058 0l0 116.62993l-479.59058 0z" fill-rule="nonzero"></path><path stroke="#38761d" stroke-width="8.0" stroke-linejoin="round" stroke-linecap="butt" d="m121.98425 167.73753l479.59058 0l0 116.62993l-479.59058 0z" fill-rule="nonzero"></path><path fill="#000000" d="m321.7663 234.32686q-1.546875 0 -1.546875 -3.53125q0 -1.53125 -1.359375 -2.546875q-0.984375 -0.6875 -2.015625 -0.859375q-0.03125 -0.015625 -0.046875 -0.015625l-4.078125 0l0 6.640625q0 0.234375 -0.1875 0.40625q-0.1875 0.171875 -0.421875 0.171875q-0.234375 0 -0.40625 -0.171875q-0.171875 -0.171875 -0.171875 -0.40625l0 -15.640625q0 -0.21875 0.15625 -0.390625q0.15625 -0.171875 0.375 -0.1875l4.796875 0q2.0 0 3.390625 1.40625q1.390625 1.40625 1.390625 3.390625q0 1.421875 -0.765625 2.59375q-0.75 1.171875 -2.0 1.75l0.25 0.125q0.953125 0.546875 1.59375 1.484375q0.65625 0.9375 0.65625 2.546875q0 1.609375 0.453125 2.0625q0.5 -0.046875 0.65625 0.375q0.109375 0.578125 -0.390625 0.78125l-0.046875 0l-0.234375 0.015625l-0.046875 0zm-4.8125 -8.109375q1.46875 -0.046875 2.5 -1.09375q1.03125 -1.0625 1.03125 -2.546875q0 -1.5 -1.078125 -2.546875q-1.0625 -1.0625 -2.546875 -1.0625l-4.140625 0l0 7.25l4.234375 0zm9.921814 7.796875l0 -15.640625q0 -0.25 0.15625 -0.40625q0.171875 -0.171875 0.421875 -0.171875l8.640625 0q0.234375 0 0.390625 0.171875q0.171875 0.15625 0.171875 0.421875q0 0.25 -0.171875 0.421875q-0.15625 0.15625 -0.390625 0.15625l-8.046875 0l0 6.65625l7.03125 0q0.234375 0 0.40625 0.1875q0.171875 0.171875 0.171875 0.40625q0 0.234375 -0.171875 0.40625q-0.171875 0.171875 -0.40625 0.171875l-7.03125 0l0 6.625l8.046875 0q0.234375 0 0.390625 0.171875q0.171875 0.15625 0.171875 0.40625q0 0.25 -0.171875 0.421875q-0.15625 0.171875 -0.390625 0.171875l-8.6875 0q-0.21875 -0.03125 -0.375 -0.1875q-0.15625 -0.15625 -0.15625 -0.390625zm14.919464 -12.09375q0.046875 2.40625 4.859375 3.3125l0.046875 0q2.75 0.5 4.265625 1.53125q1.84375 1.203125 1.84375 3.1875q0 1.984375 -1.859375 3.328125q-1.859375 1.34375 -4.359375 1.34375q-3.15625 -0.03125 -6.1875 -2.4375q-0.375 -0.328125 -0.0625 -0.734375q0.140625 -0.171875 0.34375 -0.1875q0.21875 -0.03125 0.390625 0.109375q2.71875 2.1875 5.515625 2.15625q2.21875 0 3.703125 -1.09375q1.4375 -1.03125 1.4375 -2.5q0 -2.6875 -5.25 -3.671875l-0.046875 0q-5.6875 -1.0625 -5.6875 -4.34375q0 -1.875 1.703125 -3.125q1.71875 -1.25 4.09375 -1.25q1.03125 0 2.078125 0.359375q1.046875 0.34375 1.625 0.671875q0.578125 0.3125 1.484375 0.921875q0.4375 0.28125 0.140625 0.734375q-0.25 0.4375 -0.71875 0.15625q-0.859375 -0.5625 -1.40625 -0.875q-0.53125 -0.3125 -1.4375 -0.609375q-0.890625 -0.296875 -1.765625 -0.296875q-2.015625 0 -3.421875 1.015625q-1.328125 0.984375 -1.328125 2.296875zm19.664215 12.09375l0 -15.046875l-5.0625 0q-0.25 0 -0.421875 -0.171875q-0.15625 -0.1875 -0.15625 -0.421875q0 -0.25 0.15625 -0.40625q0.171875 -0.171875 0.421875 -0.171875l11.28125 0q0.234375 0 0.390625 0.171875q0.171875 0.15625 0.171875 0.40625q0 0.234375 -0.171875 0.421875q-0.15625 0.171875 -0.390625 0.171875l-5.078125 0l0 15.046875q0 0.234375 -0.171875 0.40625q-0.15625 0.171875 -0.40625 0.171875q-0.234375 0 -0.40625 -0.171875q-0.15625 -0.171875 -0.15625 -0.40625zm29.845703 0.546875l-0.203125 0.03125q-0.421875 0 -0.5625 -0.390625l-1.484375 -3.953125l-7.65625 0l-1.484375 3.953125q-0.140625 0.390625 -0.5625 0.390625l-0.203125 -0.03125q-0.21875 -0.09375 -0.328125 -0.3125q-0.109375 -0.234375 -0.015625 -0.453125l5.828125 -15.578125q0.171875 -0.359375 0.59375 -0.359375q0.4375 0 0.5625 0.359375l5.828125 15.578125q0.109375 0.21875 0 0.453125q-0.09375 0.21875 -0.3125 0.3125zm-6.0625 -14.515625l-3.40625 9.03125l6.78125 0l-3.375 -9.03125zm10.128937 13.96875l0 -15.640625q0 -0.25 0.15625 -0.40625q0.171875 -0.171875 0.421875 -0.171875l4.75 0q1.96875 0 3.359375 1.40625q1.40625 1.40625 1.40625 3.390625q0 1.96875 -1.40625 3.375q-1.390625 1.40625 -3.359375 1.40625l-4.15625 0.046875l0 6.59375q0 0.234375 -0.1875 0.40625q-0.171875 0.171875 -0.421875 0.171875q-0.234375 0 -0.40625 -0.171875q-0.15625 -0.171875 -0.15625 -0.40625zm1.171875 -7.78125l4.15625 0q1.484375 -0.015625 2.546875 -1.078125q1.078125 -1.078125 1.078125 -2.5625q0 -1.484375 -1.078125 -2.546875q-1.0625 -1.078125 -2.546875 -1.078125l-4.15625 0l0 7.265625zm12.976349 7.78125l0 -15.640625q0 -0.25 0.171875 -0.40625q0.171875 -0.171875 0.40625 -0.171875q0.25 0 0.421875 0.171875q0.1875 0.15625 0.1875 0.40625l0 15.640625q0 0.234375 -0.1875 0.40625q-0.171875 0.171875 -0.421875 0.171875q-0.234375 0 -0.40625 -0.171875q-0.171875 -0.171875 -0.171875 -0.40625z" fill-rule="nonzero"></path><path fill="#000000" fill-opacity="0.0" d="m121.98425 363.17847l479.59058 0l0 116.629944l-479.59058 0z" fill-rule="nonzero"></path><path stroke="#4a86e8" stroke-width="8.0" stroke-linejoin="round" stroke-linecap="butt" d="m121.98425 363.17847l479.59058 0l0 116.629944l-479.59058 0z" fill-rule="nonzero"></path><path fill="#000000" d="m267.9632 429.54907q-0.125 0.484375 -0.546875 0.484375l-0.15625 0q-0.25 -0.078125 -0.375 -0.3125q-0.03125 -0.03125 -0.03125 -0.078125l-0.015625 -0.046875l0 -10.71875q0 -0.25 0.15625 -0.40625q0.171875 -0.171875 0.40625 -0.171875q0.25 0 0.40625 0.171875q0.15625 0.15625 0.15625 0.40625l0 1.125q1.421875 -1.703125 3.515625 -1.703125q2.09375 0 3.5 1.40625q1.40625 1.40625 1.40625 3.375l0 6.375q0 0.234375 -0.171875 0.40625q-0.15625 0.171875 -0.40625 0.171875q-0.234375 0 -0.40625 -0.171875q-0.171875 -0.171875 -0.171875 -0.40625l0 -6.375q0 -1.5 -1.0625 -2.5625q-1.046875 -1.0625 -2.546875 -1.0625q-1.5 0 -2.5625 1.0625q-1.046875 1.046875 -1.09375 2.5625l0 6.46875zm23.85257 -10.703125l0 10.25q0 2.28125 -1.625 3.890625q-1.609375 1.625 -3.921875 1.625q-1.171875 0 -2.4375 -0.546875q-0.484375 -0.328125 -0.25 -0.765625q0.265625 -0.546875 0.78125 -0.265625q0.90625 0.4375 1.90625 0.4375q1.828125 0 3.109375 -1.28125q1.296875 -1.265625 1.296875 -3.09375l0 -1.4375q-0.75 1.078125 -1.90625 1.6875q-1.15625 0.609375 -2.5 0.609375q-2.296875 0 -3.90625 -1.703125q-1.609375 -1.71875 -1.609375 -4.125q0 -2.421875 1.625 -4.140625q1.625 -1.71875 3.890625 -1.71875q1.328125 0 2.484375 0.625q1.171875 0.625 1.921875 1.6875l0 -1.734375q0 -0.234375 0.171875 -0.40625q0.1875 -0.171875 0.40625 -0.171875q0.234375 0 0.390625 0.171875q0.171875 0.171875 0.171875 0.40625zm-9.90625 5.28125q0 1.953125 1.28125 3.328125q1.28125 1.375 3.09375 1.375q1.8125 0 3.09375 -1.375q1.296875 -1.375 1.296875 -3.34375q0 -1.96875 -1.296875 -3.328125q-1.28125 -1.359375 -3.09375 -1.359375q-1.8125 0 -3.09375 1.375q-1.28125 1.359375 -1.28125 3.328125zm15.293091 -1.96875q-0.46875 0 -0.46875 -0.453125q0 -0.453125 0.46875 -0.453125l5.109375 0q0.453125 0 0.453125 0.421875q0 0.21875 -0.140625 0.359375q-0.125 0.125 -0.3125 0.125l-5.109375 0zm18.854462 -3.71875q0.171875 -0.171875 0.40625 -0.171875q0.25 0 0.40625 0.171875q0.171875 0.171875 0.171875 0.40625l0 10.609375q0 0.234375 -0.171875 0.40625q-0.15625 0.171875 -0.40625 0.171875q-0.234375 0 -0.40625 -0.171875q-0.171875 -0.171875 -0.171875 -0.40625l0 -1.75q-0.765625 1.078125 -1.9375 1.703125q-1.15625 0.625 -2.46875 0.625q-2.3125 0 -3.953125 -1.71875q-1.625 -1.734375 -1.625 -4.15625q0 -2.421875 1.625 -4.15625q1.640625 -1.734375 3.953125 -1.734375q1.3125 0 2.46875 0.625q1.171875 0.625 1.9375 1.6875l0 -1.734375q0 -0.234375 0.171875 -0.40625zm-9.0 5.71875q0 1.96875 1.3125 3.34375q1.3125 1.375 3.125 1.375q1.8125 0 3.09375 -1.375q1.296875 -1.375 1.296875 -3.34375q0 -1.96875 -1.296875 -3.359375q-1.28125 -1.390625 -3.09375 -1.390625q-1.8125 0 -3.125 1.390625q-1.3125 1.390625 -1.3125 3.359375zm24.387207 5.296875l0 -1.703125q-0.796875 1.0625 -1.96875 1.671875q-1.171875 0.609375 -2.546875 0.609375q-2.375 0 -4.03125 -1.71875q-1.65625 -1.71875 -1.65625 -4.140625q0 -2.4375 1.65625 -4.171875q1.65625 -1.734375 4.03125 -1.734375q1.375 0 2.546875 0.625q1.171875 0.625 1.96875 1.6875l0 -6.765625q0 -0.25 0.171875 -0.40625q0.1875 -0.171875 0.421875 -0.171875q0.25 0 0.40625 0.171875q0.171875 0.15625 0.171875 0.40625l0 15.640625q0 0.234375 -0.171875 0.40625q-0.15625 0.171875 -0.40625 0.171875q-0.234375 0 -0.421875 -0.171875q-0.171875 -0.171875 -0.171875 -0.40625zm-9.03125 -5.28125q0 1.953125 1.328125 3.328125q1.34375 1.359375 3.171875 1.359375q1.84375 0 3.140625 -1.3125q1.3125 -1.3125 1.390625 -3.171875l0 -0.390625q-0.078125 -1.890625 -1.390625 -3.203125q-1.296875 -1.328125 -3.140625 -1.328125q-1.828125 0 -3.171875 1.375q-1.328125 1.375 -1.328125 3.34375zm16.089966 5.859375l-0.140625 0q-0.359375 -0.046875 -0.484375 -0.4375l0 -10.75q0 -0.234375 0.15625 -0.390625q0.171875 -0.15625 0.40625 -0.15625q0.234375 0 0.390625 0.15625q0.171875 0.15625 0.171875 0.390625l0 1.125q1.421875 -1.671875 3.625 -1.671875q1.34375 0 2.453125 0.6875q1.125 0.671875 1.75 1.8125q0.640625 -1.140625 1.765625 -1.8125q1.140625 -0.6875 2.453125 -0.6875q1.96875 0 3.375 1.40625q1.40625 1.40625 1.40625 3.375l0 6.40625q0 0.203125 -0.171875 0.375q-0.171875 0.171875 -0.40625 0.171875q-0.234375 0 -0.390625 -0.171875q-0.15625 -0.171875 -0.15625 -0.375l0 -6.40625q-0.046875 -1.515625 -1.109375 -2.578125q-1.0625 -1.078125 -2.546875 -1.078125q-1.484375 0 -2.5625 1.078125q-1.0625 1.078125 -1.0625 2.578125l0 6.46875l-0.015625 0.046875l0 0.046875q-0.046875 0.171875 -0.25 0.28125q-0.1875 0.109375 -0.328125 0.109375l-0.125 0l-0.1875 -0.09375q-0.03125 0 -0.109375 -0.09375q-0.078125 -0.09375 -0.09375 -0.125q-0.015625 -0.03125 -0.03125 -0.0625q-0.015625 -0.03125 -0.03125 -0.0625l0 -6.515625q0 -1.515625 -1.0625 -2.578125q-1.046875 -1.078125 -2.5625 -1.078125q-1.515625 0 -2.578125 1.078125q-1.046875 1.0625 -1.046875 2.578125l0 6.40625q0 0.3125 -0.265625 0.453125q-0.09375 0.09375 -0.234375 0.09375zm22.214539 -0.578125l0 -10.609375q0 -0.234375 0.171875 -0.40625q0.171875 -0.171875 0.421875 -0.171875q0.25 0 0.421875 0.171875q0.171875 0.171875 0.171875 0.40625l0 10.609375q0 0.234375 -0.1875 0.40625q-0.171875 0.171875 -0.421875 0.171875q-0.234375 0 -0.40625 -0.171875q-0.171875 -0.171875 -0.171875 -0.40625zm0 -13.890625l0 -0.5625q0 -0.234375 0.171875 -0.390625q0.171875 -0.171875 0.40625 -0.171875q0.25 0 0.421875 0.171875q0.1875 0.15625 0.1875 0.390625l0 0.5625q0 0.265625 -0.1875 0.453125q-0.171875 0.171875 -0.421875 0.171875q-0.234375 0 -0.40625 -0.171875q-0.171875 -0.1875 -0.171875 -0.453125zm7.853363 13.984375q-0.125 0.484375 -0.546875 0.484375l-0.15625 0q-0.25 -0.078125 -0.375 -0.3125q-0.03125 -0.03125 -0.03125 -0.078125l-0.015625 -0.046875l0 -10.71875q0 -0.25 0.15625 -0.40625q0.171875 -0.171875 0.40625 -0.171875q0.25 0 0.40625 0.171875q0.15625 0.15625 0.15625 0.40625l0 1.125q1.421875 -1.703125 3.515625 -1.703125q2.09375 0 3.5 1.40625q1.40625 1.40625 1.40625 3.375l0 6.375q0 0.234375 -0.171875 0.40625q-0.15625 0.171875 -0.40625 0.171875q-0.234375 0 -0.40625 -0.171875q-0.171875 -0.171875 -0.171875 -0.40625l0 -6.375q0 -1.5 -1.0625 -2.5625q-1.046875 -1.0625 -2.546875 -1.0625q-1.5 0 -2.5625 1.0625q-1.046875 1.046875 -1.09375 2.5625l0 6.46875zm27.318207 0.4375q-0.15625 0.046875 -0.28125 0.046875q-0.125 0 -0.1875 -0.046875q-0.203125 -0.078125 -0.28125 -0.296875q-0.03125 0 -0.03125 -0.046875l-0.015625 -0.015625l-6.5 -15.484375q-0.09375 -0.21875 0 -0.4375q0.09375 -0.234375 0.296875 -0.328125q0.21875 -0.09375 0.453125 0q0.234375 0.078125 0.328125 0.28125l6.0 14.3125l6.015625 -14.3125q0.078125 -0.203125 0.296875 -0.28125q0.234375 -0.09375 0.453125 0q0.21875 0.09375 0.3125 0.328125q0.09375 0.21875 0 0.4375l-6.5 15.359375q-0.046875 0.359375 -0.34375 0.484375l-0.015625 0zm11.484314 -0.53125l0 -10.609375q0 -0.234375 0.171875 -0.40625q0.171875 -0.171875 0.421875 -0.171875q0.25 0 0.421875 0.171875q0.171875 0.171875 0.171875 0.40625l0 10.609375q0 0.234375 -0.1875 0.40625q-0.171875 0.171875 -0.421875 0.171875q-0.234375 0 -0.40625 -0.171875q-0.171875 -0.171875 -0.171875 -0.40625zm0 -13.890625l0 -0.5625q0 -0.234375 0.171875 -0.390625q0.171875 -0.171875 0.40625 -0.171875q0.25 0 0.421875 0.171875q0.1875 0.15625 0.1875 0.390625l0 0.5625q0 0.265625 -0.1875 0.453125q-0.171875 0.171875 -0.421875 0.171875q-0.234375 0 -0.40625 -0.171875q-0.171875 -0.1875 -0.171875 -0.453125zm17.259583 8.1875l0 0.09375q0 0.234375 -0.171875 0.390625q-0.15625 0.140625 -0.40625 0.140625l-9.640625 0q0.09375 1.90625 1.40625 3.203125q1.328125 1.296875 3.15625 1.296875q1.171875 0 2.171875 -0.5625q1.015625 -0.578125 1.609375 -1.5625q0.296875 -0.484375 0.765625 -0.203125q0.484375 0.34375 0.203125 0.828125q-0.765625 1.21875 -2.03125 1.9375q-1.265625 0.71875 -2.71875 0.71875q-2.375 0 -4.046875 -1.71875q-1.671875 -1.71875 -1.671875 -4.140625q0 -2.4375 1.671875 -4.171875q1.671875 -1.734375 3.984375 -1.734375q2.3125 0 3.921875 1.578125q1.609375 1.578125 1.796875 3.90625zm-1.25 -0.515625q-0.28125 -1.65625 -1.53125 -2.734375q-1.25 -1.078125 -2.890625 -1.078125q-1.640625 0 -2.890625 1.078125q-1.25 1.0625 -1.59375 2.734375l8.90625 0zm16.162842 6.796875l-0.125 0q-0.390625 -0.046875 -0.453125 -0.359375l-0.03125 -0.03125l-2.734375 -6.5l-2.703125 6.484375q-0.03125 0.015625 -0.03125 0.046875q-0.125 0.359375 -0.5 0.359375q-0.21875 0 -0.3125 -0.09375q-0.171875 -0.078125 -0.25 -0.265625l-4.40625 -10.515625q-0.09375 -0.21875 0 -0.421875q0.234375 -0.53125 0.734375 -0.3125q0.21875 0.09375 0.296875 0.3125l3.90625 9.25l2.71875 -6.453125q0.171875 -0.359375 0.5625 -0.359375q0.390625 0 0.5625 0.359375l2.71875 6.453125l3.875 -9.25q0.09375 -0.21875 0.328125 -0.3125q0.234375 -0.109375 0.4375 0q0.203125 0.09375 0.296875 0.3125q0.09375 0.203125 0 0.421875l-4.390625 10.46875q-0.078125 0.171875 -0.234375 0.296875q-0.15625 0.109375 -0.265625 0.109375zm9.085815 -1.6875q-0.40625 -0.359375 -0.0625 -0.765625q0.140625 -0.1875 0.375 -0.203125q0.25 -0.03125 0.4375 0.140625q1.875 1.359375 3.40625 1.359375q1.53125 0 2.421875 -0.71875q0.890625 -0.59375 0.875 -1.390625q-0.015625 -0.8125 -0.796875 -1.4375q-0.765625 -0.625 -2.53125 -0.90625l-0.046875 -0.03125q-1.859375 -0.328125 -2.65625 -0.90625q-1.28125 -0.75 -1.28125 -2.109375q0 -1.375 1.28125 -2.3125q1.15625 -0.796875 2.875 -0.796875q0.703125 0 1.40625 0.234375q0.703125 0.234375 1.078125 0.4375q0.375 0.203125 1.015625 0.609375q0.203125 0.140625 0.25 0.390625q0.046875 0.234375 -0.078125 0.421875q-0.109375 0.1875 -0.359375 0.234375q-0.234375 0.046875 -0.4375 -0.0625q-0.59375 -0.40625 -0.890625 -0.578125q-0.296875 -0.1875 -0.875 -0.390625q-0.578125 -0.21875 -1.109375 -0.21875q-1.390625 0 -2.1875 0.640625q-0.78125 0.640625 -0.78125 1.34375q0 0.6875 0.671875 1.21875q0.828125 0.578125 2.390625 0.8125l0.046875 0q1.5625 0.234375 2.859375 0.953125q1.328125 0.875 1.328125 2.328125q0 1.453125 -1.3125 2.421875q-1.3125 0.96875 -2.96875 0.96875q-2.28125 -0.03125 -4.34375 -1.6875z" fill-rule="nonzero"></path><path fill="#000000" fill-opacity="0.0" d="m361.77954 126.54855l0 41.196854" fill-rule="nonzero"></path><path stroke="#000000" stroke-width="4.0" stroke-linejoin="round" stroke-linecap="butt" d="m361.77954 126.54855l0 27.48851" fill-rule="evenodd"></path><path fill="#000000" stroke="#000000" stroke-width="4.0" stroke-linecap="butt" d="m361.77954 154.03706l-4.498352 -4.498337l4.498352 12.35907l4.4983215 -12.35907z" fill-rule="evenodd"></path><path fill="#000000" fill-opacity="0.0" d="m361.77954 284.36746l0 78.80313" fill-rule="nonzero"></path><path stroke="#000000" stroke-width="4.0" stroke-linejoin="round" stroke-linecap="butt" d="m361.77954 284.36746l0 65.09482" fill-rule="evenodd"></path><path fill="#000000" stroke="#000000" stroke-width="4.0" stroke-linecap="butt" d="m361.77954 349.46225l-4.498352 -4.4983215l4.498352 12.35907l4.4983215 -12.35907z" fill-rule="evenodd"></path><path fill="#000000" fill-opacity="0.0" d="m99.3727 322.90814l542.6772 -2.3937073" fill-rule="nonzero"></path><path stroke="#000000" stroke-width="3.0" stroke-linejoin="round" stroke-linecap="butt" stroke-dasharray="24.0,9.0" d="m99.3727 322.90814l542.6772 -2.3937073" fill-rule="nonzero"></path><path fill="#000000" fill-opacity="0.0" d="m604.8898 359.73752l112.25195 0l0 79.968506l-112.25195 0z" fill-rule="nonzero"></path><path fill="#000000" d="m615.6554 386.2044l0 -12.390625q0 -0.1875 0.125 -0.3125q0.140625 -0.140625 0.328125 -0.140625q0.1875 0 0.328125 0.140625q0.15625 0.125 0.15625 0.3125l0 5.359375q0.625 -0.84375 1.546875 -1.328125q0.9375 -0.5 2.015625 -0.5q1.890625 0 3.1875 1.375q1.3125 1.359375 1.3125 3.296875q0 1.921875 -1.3125 3.28125q-1.296875 1.359375 -3.1875 1.359375q-1.078125 0 -2.015625 -0.484375q-0.921875 -0.484375 -1.546875 -1.328125l0 1.359375q0 0.1875 -0.15625 0.328125q-0.140625 0.125 -0.328125 0.125q-0.1875 0 -0.328125 -0.125q-0.125 -0.140625 -0.125 -0.328125zm0.9375 -4.328125l0 0.140625q0 1.546875 1.046875 2.625q1.0625 1.078125 2.53125 1.078125q1.46875 0 2.515625 -1.078125q1.046875 -1.078125 1.046875 -2.625q0 -1.546875 -1.046875 -2.640625q-1.046875 -1.09375 -2.515625 -1.09375q-1.453125 0 -2.5 1.046875q-1.03125 1.046875 -1.078125 2.546875zm11.37561 4.328125l0 -8.375q0 -0.203125 0.125 -0.328125q0.140625 -0.140625 0.328125 -0.140625q0.1875 0 0.3125 0.140625q0.140625 0.125 0.140625 0.328125l0 2.046875q0.078125 -0.15625 0.140625 -0.234375q1.46875 -2.28125 3.71875 -2.28125q0.1875 0 0.3125 0.140625q0.140625 0.125 0.140625 0.328125q0 0.1875 -0.140625 0.328125q-0.125 0.125 -0.3125 0.125q-1.515625 0 -2.6875 1.515625q-0.6875 0.90625 -1.125 2.171875q-0.046875 0.078125 -0.046875 0.140625l0 4.09375q0 0.1875 -0.140625 0.328125q-0.125 0.125 -0.3125 0.125q-0.1875 0 -0.328125 -0.125q-0.125 -0.140625 -0.125 -0.328125zm9.0338745 -0.921875q-1.28125 -1.375 -1.28125 -3.28125q0 -1.90625 1.28125 -3.28125q1.296875 -1.375 3.125 -1.375q1.828125 0 3.109375 1.375q1.296875 1.375 1.296875 3.28125q0 1.90625 -1.296875 3.28125q-1.28125 1.375 -3.109375 1.375q-1.828125 0 -3.125 -1.375zm3.125 -7.046875q-1.421875 0 -2.46875 1.109375q-1.03125 1.09375 -1.03125 2.65625q0 1.546875 1.03125 2.65625q1.046875 1.09375 2.46875 1.09375q1.421875 0 2.453125 -1.09375q1.046875 -1.109375 1.046875 -2.65625q0 -1.5625 -1.046875 -2.65625q-1.03125 -1.109375 -2.453125 -1.109375zm16.269531 8.421875l-0.109375 0q-0.296875 -0.03125 -0.359375 -0.28125l-0.015625 -0.015625l-2.171875 -5.15625l-2.140625 5.125q-0.015625 0.03125 -0.015625 0.046875q-0.09375 0.28125 -0.40625 0.28125q-0.171875 0 -0.234375 -0.078125q-0.140625 -0.0625 -0.203125 -0.203125l-3.484375 -8.328125q-0.078125 -0.171875 0 -0.34375q0.1875 -0.40625 0.578125 -0.25q0.171875 0.078125 0.234375 0.25l3.09375 7.34375l2.15625 -5.109375q0.125 -0.296875 0.4375 -0.296875q0.3125 0 0.453125 0.296875l2.140625 5.109375l3.078125 -7.34375q0.078125 -0.171875 0.25 -0.234375q0.1875 -0.078125 0.34375 0q0.171875 0.0625 0.234375 0.234375q0.078125 0.171875 0.015625 0.34375l-3.484375 8.28125q-0.0625 0.140625 -0.1875 0.234375q-0.109375 0.09375 -0.203125 0.09375zm6.8911133 -1.328125q-0.3125 -0.28125 -0.046875 -0.609375q0.109375 -0.15625 0.296875 -0.171875q0.1875 -0.015625 0.34375 0.109375q1.484375 1.09375 2.703125 1.09375q1.21875 0 1.921875 -0.578125q0.703125 -0.46875 0.6875 -1.109375q-0.015625 -0.640625 -0.640625 -1.125q-0.609375 -0.5 -1.984375 -0.734375l-0.046875 -0.015625q-1.484375 -0.265625 -2.109375 -0.71875q-1.0 -0.59375 -1.0 -1.671875q0 -1.078125 1.0 -1.828125q0.921875 -0.625 2.28125 -0.625q0.546875 0 1.109375 0.1875q0.5625 0.171875 0.859375 0.34375q0.296875 0.15625 0.8125 0.484375q0.140625 0.109375 0.171875 0.296875q0.046875 0.1875 -0.046875 0.34375q-0.09375 0.15625 -0.28125 0.203125q-0.1875 0.03125 -0.34375 -0.078125q-0.46875 -0.3125 -0.71875 -0.453125q-0.234375 -0.140625 -0.6875 -0.296875q-0.453125 -0.171875 -0.875 -0.171875q-1.09375 0 -1.734375 0.5q-0.625 0.5 -0.625 1.0625q0 0.546875 0.53125 0.96875q0.671875 0.453125 1.90625 0.640625l0.03125 0q1.234375 0.1875 2.265625 0.765625q1.046875 0.671875 1.046875 1.828125q0 1.15625 -1.046875 1.921875q-1.03125 0.765625 -2.34375 0.765625q-1.796875 -0.015625 -3.4375 -1.328125zm18.116394 -3.65625l0 0.078125q0 0.1875 -0.140625 0.3125q-0.125 0.109375 -0.3125 0.109375l-7.640625 0q0.078125 1.515625 1.125 2.546875q1.046875 1.03125 2.484375 1.03125q0.9375 0 1.734375 -0.453125q0.796875 -0.46875 1.265625 -1.25q0.234375 -0.375 0.609375 -0.140625q0.375 0.265625 0.15625 0.640625q-0.609375 0.96875 -1.609375 1.546875q-1.0 0.5625 -2.15625 0.5625q-1.875 0 -3.203125 -1.359375q-1.3125 -1.359375 -1.3125 -3.28125q0 -1.9375 1.3125 -3.296875q1.328125 -1.375 3.15625 -1.375q1.828125 0 3.09375 1.25q1.28125 1.234375 1.4375 3.078125zm-0.984375 -0.390625q-0.234375 -1.3125 -1.21875 -2.15625q-0.984375 -0.859375 -2.296875 -0.859375q-1.296875 0 -2.28125 0.84375q-0.984375 0.84375 -1.25 2.171875l7.046875 0zm4.0023193 4.921875l0 -8.375q0 -0.203125 0.125 -0.328125q0.140625 -0.140625 0.328125 -0.140625q0.1875 0 0.3125 0.140625q0.140625 0.125 0.140625 0.328125l0 2.046875q0.078125 -0.15625 0.140625 -0.234375q1.46875 -2.28125 3.71875 -2.28125q0.1875 0 0.3125 0.140625q0.140625 0.125 0.140625 0.328125q0 0.1875 -0.140625 0.328125q-0.125 0.125 -0.3125 0.125q-1.515625 0 -2.6875 1.515625q-0.6875 0.90625 -1.125 2.171875q-0.046875 0.078125 -0.046875 0.140625l0 4.09375q0 0.1875 -0.140625 0.328125q-0.125 0.125 -0.3125 0.125q-0.1875 0 -0.328125 -0.125q-0.125 -0.140625 -0.125 -0.328125z" fill-rule="nonzero"></path><path fill="#000000" fill-opacity="0.0" d="m602.04987 243.64043l112.25195 0l0 79.96849l-112.25195 0z" fill-rule="nonzero"></path><path fill="#000000" d="m612.22174 269.2323q-0.3125 -0.28125 -0.046875 -0.609375q0.109375 -0.15625 0.296875 -0.171875q0.1875 -0.015625 0.34375 0.109375q1.484375 1.09375 2.703125 1.09375q1.21875 0 1.921875 -0.578125q0.703125 -0.46875 0.6875 -1.109375q-0.015625 -0.640625 -0.640625 -1.125q-0.609375 -0.5 -1.984375 -0.734375l-0.046875 -0.015625q-1.484375 -0.265625 -2.109375 -0.71875q-1.0 -0.59375 -1.0 -1.671875q0 -1.078125 1.0 -1.828125q0.921875 -0.625 2.28125 -0.625q0.546875 0 1.109375 0.1875q0.5625 0.171875 0.859375 0.34375q0.296875 0.15625 0.8125 0.484375q0.140625 0.109375 0.171875 0.296875q0.046875 0.1875 -0.046875 0.34375q-0.09375 0.15625 -0.28125 0.203125q-0.1875 0.03125 -0.34375 -0.078125q-0.46875 -0.3125 -0.71875 -0.453125q-0.234375 -0.140625 -0.6875 -0.296875q-0.453125 -0.171875 -0.875 -0.171875q-1.09375 0 -1.734375 0.5q-0.625 0.5 -0.625 1.0625q0 0.546875 0.53125 0.96875q0.671875 0.453125 1.90625 0.640625l0.03125 0q1.234375 0.1875 2.265625 0.765625q1.046875 0.671875 1.046875 1.828125q0 1.15625 -1.046875 1.921875q-1.03125 0.765625 -2.34375 0.765625q-1.796875 -0.015625 -3.4375 -1.328125zm18.116394 -3.65625l0 0.078125q0 0.1875 -0.140625 0.3125q-0.125 0.109375 -0.3125 0.109375l-7.640625 0q0.078125 1.515625 1.125 2.546875q1.046875 1.03125 2.484375 1.03125q0.9375 0 1.734375 -0.453125q0.796875 -0.46875 1.265625 -1.25q0.234375 -0.375 0.609375 -0.140625q0.375 0.265625 0.15625 0.640625q-0.609375 0.96875 -1.609375 1.546875q-1.0 0.5625 -2.15625 0.5625q-1.875 0 -3.203125 -1.359375q-1.3125 -1.359375 -1.3125 -3.28125q0 -1.9375 1.3125 -3.296875q1.328125 -1.375 3.15625 -1.375q1.828125 0 3.09375 1.25q1.28125 1.234375 1.4375 3.078125zm-0.984375 -0.390625q-0.234375 -1.3125 -1.21875 -2.15625q-0.984375 -0.859375 -2.296875 -0.859375q-1.296875 0 -2.28125 0.84375q-0.984375 0.84375 -1.25 2.171875l7.046875 0zm4.0022583 4.921875l0 -8.375q0 -0.203125 0.125 -0.328125q0.140625 -0.140625 0.328125 -0.140625q0.1875 0 0.3125 0.140625q0.140625 0.125 0.140625 0.328125l0 2.046875q0.078125 -0.15625 0.140625 -0.234375q1.46875 -2.28125 3.71875 -2.28125q0.1875 0 0.3125 0.140625q0.140625 0.125 0.140625 0.328125q0 0.1875 -0.140625 0.328125q-0.125 0.125 -0.3125 0.125q-1.515625 0 -2.6875 1.515625q-0.6875 0.90625 -1.125 2.171875q-0.046875 0.078125 -0.046875 0.140625l0 4.09375q0 0.1875 -0.140625 0.328125q-0.125 0.125 -0.3125 0.125q-0.1875 0 -0.328125 -0.125q-0.125 -0.140625 -0.125 -0.328125zm11.8776245 0.09375q-0.015625 0.109375 -0.125 0.234375q-0.109375 0.125 -0.265625 0.125q-0.15625 0 -0.3125 -0.078125q-0.109375 -0.109375 -0.15625 -0.203125l-3.484375 -8.328125q-0.078125 -0.171875 0 -0.34375q0.1875 -0.40625 0.5625 -0.25q0.1875 0.078125 0.25 0.25l3.09375 7.34375l3.09375 -7.34375q0.0625 -0.171875 0.234375 -0.234375q0.1875 -0.078125 0.359375 -0.015625q0.390625 0.171875 0.234375 0.59375l-3.484375 8.25zm15.51416 -4.625l0 0.078125q0 0.1875 -0.140625 0.3125q-0.125 0.109375 -0.3125 0.109375l-7.640625 0q0.078125 1.515625 1.125 2.546875q1.046875 1.03125 2.484375 1.03125q0.9375 0 1.734375 -0.453125q0.796875 -0.46875 1.265625 -1.25q0.234375 -0.375 0.609375 -0.140625q0.375 0.265625 0.15625 0.640625q-0.609375 0.96875 -1.609375 1.546875q-1.0 0.5625 -2.15625 0.5625q-1.875 0 -3.203125 -1.359375q-1.3125 -1.359375 -1.3125 -3.28125q0 -1.9375 1.3125 -3.296875q1.328125 -1.375 3.15625 -1.375q1.828125 0 3.09375 1.25q1.28125 1.234375 1.4375 3.078125zm-0.984375 -0.390625q-0.234375 -1.3125 -1.21875 -2.15625q-0.984375 -0.859375 -2.296875 -0.859375q-1.296875 0 -2.28125 0.84375q-0.984375 0.84375 -1.25 2.171875l7.046875 0zm4.0023193 4.921875l0 -8.375q0 -0.203125 0.125 -0.328125q0.140625 -0.140625 0.328125 -0.140625q0.1875 0 0.3125 0.140625q0.140625 0.125 0.140625 0.328125l0 2.046875q0.078125 -0.15625 0.140625 -0.234375q1.46875 -2.28125 3.71875 -2.28125q0.1875 0 0.3125 0.140625q0.140625 0.125 0.140625 0.328125q0 0.1875 -0.140625 0.328125q-0.125 0.125 -0.3125 0.125q-1.515625 0 -2.6875 1.515625q-0.6875 0.90625 -1.125 2.171875q-0.046875 0.078125 -0.046875 0.140625l0 4.09375q0 0.1875 -0.140625 0.328125q-0.125 0.125 -0.3125 0.125q-0.1875 0 -0.328125 -0.125q-0.125 -0.140625 -0.125 -0.328125z" fill-rule="nonzero"></path></g></svg>

